<svg width="32" height="32" viewBox="0 0 32 32" fill="none" xmlns="http://www.w3.org/2000/svg">
  <!-- Building base -->
  <rect x="4" y="12" width="24" height="16" fill="#2563eb" rx="1"/>
  
  <!-- Roof -->
  <path d="M2 12 L16 4 L30 12 L28 12 L16 6 L4 12 Z" fill="#1d4ed8"/>
  
  <!-- Windows -->
  <rect x="7" y="15" width="3" height="3" fill="#fbbf24" rx="0.5"/>
  <rect x="12" y="15" width="3" height="3" fill="#fbbf24" rx="0.5"/>
  <rect x="17" y="15" width="3" height="3" fill="#fbbf24" rx="0.5"/>
  <rect x="22" y="15" width="3" height="3" fill="#fbbf24" rx="0.5"/>
  
  <rect x="7" y="20" width="3" height="3" fill="#fbbf24" rx="0.5"/>
  <rect x="12" y="20" width="3" height="3" fill="#fbbf24" rx="0.5"/>
  <rect x="17" y="20" width="3" height="3" fill="#fbbf24" rx="0.5"/>
  <rect x="22" y="20" width="3" height="3" fill="#fbbf24" rx="0.5"/>
  
  <!-- Door -->
  <rect x="14" y="24" width="4" height="4" fill="#374151" rx="0.5"/>
  <circle cx="16.5" cy="26" r="0.3" fill="#fbbf24"/>
  
  <!-- Hotel sign -->
  <rect x="10" y="8" width="12" height="3" fill="#dc2626" rx="0.5"/>
  <text x="16" y="10.2" text-anchor="middle" font-family="Arial, sans-serif" font-size="2" fill="white" font-weight="bold">HOTEL</text>
</svg>